<svg width="22" height="22" viewBox="0 0 22 22" fill="none" xmlns="http://www.w3.org/2000/svg">
<path d="M15 1H7C3 1 1 3 1 7V20C1 20.55 1.45 21 2 21H15C19 21 21 19 21 15V7C21 3 19 1 15 1Z" stroke="white" stroke-width="1.5" stroke-linecap="round" stroke-linejoin="round"/>
<path d="M11.9098 6.83991L6.7198 12.0299C6.5198 12.2299 6.3298 12.6199 6.2898 12.8999L6.0098 14.8799C5.9098 15.5999 6.4098 16.0999 7.1298 15.9999L9.1098 15.7199C9.3898 15.6799 9.7798 15.4899 9.9798 15.2899L15.1698 10.0999C16.0598 9.20991 16.4898 8.16991 15.1698 6.84991C13.8498 5.51991 12.8098 5.93991 11.9098 6.83991Z" stroke="white" stroke-width="1.5" stroke-miterlimit="10" stroke-linecap="round" stroke-linejoin="round"/>
<path d="M11.1699 7.58008C11.387 8.35526 11.8001 9.06147 12.3693 9.6307C12.9385 10.1999 13.6447 10.613 14.4199 10.8301" stroke="white" stroke-width="1.5" stroke-miterlimit="10" stroke-linecap="round" stroke-linejoin="round"/>
</svg>
