<svg width="946" height="419" viewBox="0 0 946 419" fill="none" xmlns="http://www.w3.org/2000/svg">
<path d="M103.141 16.9448L100.529 25.7495H98.5281L95.8396 16.9448H97.6489L99.5602 24.2587L101.421 16.9448H103.141ZM106.09 19.009V25.7495H104.459V19.009H106.09ZM105.262 15.5941C105.567 15.5941 105.814 15.6918 106.001 15.8872C106.196 16.0741 106.294 16.3077 106.294 16.588C106.294 16.8683 106.196 17.1019 106.001 17.2888C105.814 17.4757 105.567 17.5692 105.262 17.5692C104.964 17.5692 104.718 17.4757 104.523 17.2888C104.336 17.1019 104.242 16.8683 104.242 16.588C104.242 16.3077 104.336 16.0741 104.523 15.8872C104.718 15.6918 104.964 15.5941 105.262 15.5941ZM110.565 18.8179C111.474 18.8179 112.273 19.0854 112.961 19.6206L112.324 20.5763C111.746 20.211 111.181 20.0284 110.629 20.0284C110.306 20.0284 110.056 20.0921 109.877 20.2195C109.699 20.3384 109.61 20.4998 109.61 20.7037C109.61 20.8566 109.648 20.984 109.724 21.0859C109.801 21.1879 109.937 21.2856 110.132 21.379C110.336 21.464 110.633 21.5616 111.024 21.6721C111.754 21.8675 112.294 22.1265 112.642 22.4493C112.999 22.7721 113.177 23.2223 113.177 23.8C113.177 24.4711 112.906 24.9977 112.362 25.38C111.818 25.7538 111.143 25.9406 110.336 25.9406C109.784 25.9406 109.278 25.8557 108.82 25.6858C108.369 25.5159 107.979 25.2823 107.647 24.985L108.463 24.0676C109.049 24.5093 109.661 24.7302 110.298 24.7302C110.663 24.7302 110.952 24.6579 111.164 24.5135C111.385 24.3691 111.495 24.1695 111.495 23.9147C111.495 23.7193 111.453 23.5664 111.368 23.456C111.292 23.337 111.147 23.2351 110.935 23.1501C110.731 23.0567 110.408 22.9463 109.966 22.8189C109.278 22.632 108.773 22.3729 108.45 22.0416C108.127 21.7018 107.966 21.2813 107.966 20.7801C107.966 20.4064 108.072 20.0708 108.284 19.7735C108.505 19.4762 108.811 19.2426 109.202 19.0727C109.601 18.9028 110.056 18.8179 110.565 18.8179ZM116.51 19.009V25.7495H114.879V19.009H116.51ZM115.682 15.5941C115.988 15.5941 116.234 15.6918 116.421 15.8872C116.617 16.0741 116.714 16.3077 116.714 16.588C116.714 16.8683 116.617 17.1019 116.421 17.2888C116.234 17.4757 115.988 17.5692 115.682 17.5692C115.385 17.5692 115.139 17.4757 114.943 17.2888C114.756 17.1019 114.663 16.8683 114.663 16.588C114.663 16.3077 114.756 16.0741 114.943 15.8872C115.139 15.6918 115.385 15.5941 115.682 15.5941ZM122.719 25.431C122.481 25.6009 122.213 25.7283 121.916 25.8132C121.627 25.8982 121.33 25.9406 121.024 25.9406C120.361 25.9321 119.856 25.7453 119.508 25.38C119.168 25.0062 118.998 24.4583 118.998 23.7363V20.1813H117.94V19.009H118.998V17.5182L120.629 17.3271V19.009H122.196L122.031 20.1813H120.629V23.6981C120.629 24.0293 120.684 24.2672 120.795 24.4116C120.914 24.556 121.096 24.6282 121.343 24.6282C121.589 24.6282 121.856 24.5475 122.145 24.3861L122.719 25.431ZM126.559 18.8179C127.553 18.8179 128.326 19.1364 128.878 19.7735C129.439 20.4021 129.719 21.2686 129.719 22.3729C129.719 23.0779 129.592 23.7023 129.337 24.246C129.082 24.7811 128.717 25.1974 128.241 25.4947C127.765 25.792 127.2 25.9406 126.546 25.9406C125.553 25.9406 124.775 25.6263 124.215 24.9977C123.654 24.3606 123.374 23.4857 123.374 22.3729C123.374 21.6678 123.501 21.0477 123.756 20.5126C124.011 19.9774 124.376 19.5611 124.852 19.2638C125.336 18.9665 125.905 18.8179 126.559 18.8179ZM126.559 20.0538C125.582 20.0538 125.094 20.8269 125.094 22.3729C125.094 23.1714 125.213 23.7618 125.451 24.144C125.697 24.5178 126.062 24.7047 126.546 24.7047C127.031 24.7047 127.392 24.5135 127.629 24.1313C127.876 23.749 127.999 23.1629 127.999 22.3729C127.999 21.5829 127.876 21.001 127.629 20.6272C127.392 20.245 127.035 20.0538 126.559 20.0538ZM134.956 18.8306C135.202 18.8306 135.427 18.8603 135.631 18.9198L135.351 20.4998C135.147 20.4488 134.947 20.4234 134.752 20.4234C134.353 20.4234 134.038 20.5678 133.809 20.8566C133.58 21.1369 133.397 21.5701 133.261 22.1563V25.7495H131.63V19.009H133.045L133.198 20.3342C133.359 19.85 133.593 19.4804 133.898 19.2256C134.204 18.9623 134.557 18.8306 134.956 18.8306ZM138.993 18.8179C139.902 18.8179 140.701 19.0854 141.389 19.6206L140.752 20.5763C140.174 20.211 139.609 20.0284 139.057 20.0284C138.734 20.0284 138.484 20.0921 138.305 20.2195C138.127 20.3384 138.038 20.4998 138.038 20.7037C138.038 20.8566 138.076 20.984 138.152 21.0859C138.229 21.1879 138.365 21.2856 138.56 21.379C138.764 21.464 139.061 21.5616 139.452 21.6721C140.183 21.8675 140.722 22.1265 141.07 22.4493C141.427 22.7721 141.605 23.2223 141.605 23.8C141.605 24.4711 141.334 24.9977 140.79 25.38C140.246 25.7538 139.571 25.9406 138.764 25.9406C138.212 25.9406 137.706 25.8557 137.248 25.6858C136.797 25.5159 136.407 25.2823 136.075 24.985L136.891 24.0676C137.477 24.5093 138.089 24.7302 138.726 24.7302C139.091 24.7302 139.38 24.6579 139.592 24.5135C139.813 24.3691 139.923 24.1695 139.923 23.9147C139.923 23.7193 139.881 23.5664 139.796 23.456C139.72 23.337 139.575 23.2351 139.363 23.1501C139.159 23.0567 138.836 22.9463 138.394 22.8189C137.706 22.632 137.201 22.3729 136.878 22.0416C136.555 21.7018 136.394 21.2813 136.394 20.7801C136.394 20.4064 136.5 20.0708 136.712 19.7735C136.933 19.4762 137.239 19.2426 137.63 19.0727C138.029 18.9028 138.484 18.8179 138.993 18.8179Z" fill="white"/>
<path d="M113.677 39.7251V353.403H815.236" stroke="white" stroke-width="3.74765"/>
<path d="M84.6909 43.1537V47.8438H83.7207V44.2809L82.4485 44.6151V43.8502L84.5822 43.1537H84.6909ZM90.7826 47.0748V47.8438H87.2037V47.1875L88.9147 45.5853C89.0918 45.4216 89.2314 45.2753 89.3334 45.1465C89.438 45.015 89.5132 44.8969 89.5588 44.7922C89.6044 44.6848 89.6272 44.5882 89.6272 44.5023C89.6272 44.3145 89.5655 44.1602 89.4421 44.0394C89.3186 43.9186 89.1415 43.8582 88.9107 43.8582C88.7201 43.8582 88.5617 43.8931 88.4356 43.9629C88.3122 44.03 88.2209 44.1226 88.1619 44.2407C88.1028 44.3588 88.0733 44.4929 88.0733 44.6432H87.099C87.099 44.3588 87.1702 44.0984 87.3124 43.8622C87.4547 43.6261 87.6586 43.4382 87.9243 43.2986C88.1927 43.1591 88.5134 43.0893 88.8865 43.0893C89.2461 43.0893 89.5534 43.1457 89.8084 43.2584C90.0661 43.3711 90.262 43.5335 90.3962 43.7455C90.5304 43.9548 90.5975 44.2031 90.5975 44.4903C90.5975 44.6486 90.5706 44.7989 90.5169 44.9412C90.4659 45.0834 90.3908 45.2216 90.2915 45.3558C90.1922 45.49 90.0714 45.6269 89.9292 45.7664C89.7869 45.906 89.6259 46.055 89.4461 46.2133L88.4477 47.0748H90.7826ZM93.1304 45.7262L92.3575 45.541L92.6554 43.1537H95.5137V43.9387H93.4605L93.3196 44.9452C93.3921 44.913 93.5021 44.8754 93.6497 44.8325C93.8 44.7895 93.9664 44.768 94.1489 44.768C94.4844 44.768 94.7716 44.8298 95.0105 44.9532C95.2493 45.074 95.4318 45.2498 95.558 45.4806C95.6868 45.7087 95.7512 45.9852 95.7512 46.3099C95.7512 46.5917 95.6881 46.8547 95.562 47.099C95.4358 47.3405 95.2426 47.5364 94.9823 47.6867C94.7246 47.8344 94.3959 47.9082 93.996 47.9082C93.698 47.9082 93.4176 47.8558 93.1546 47.7512C92.8915 47.6465 92.6755 47.4935 92.5064 47.2922C92.34 47.0909 92.2488 46.8454 92.2327 46.5555H93.1908C93.2123 46.7568 93.2955 46.9044 93.4404 46.9983C93.5853 47.0923 93.7705 47.1392 93.996 47.1392C94.1838 47.1392 94.3355 47.103 94.4509 47.0305C94.5663 46.9554 94.6495 46.8547 94.7005 46.7286C94.7541 46.5998 94.781 46.4549 94.781 46.2938C94.781 46.1328 94.7474 45.9905 94.6803 45.8671C94.6132 45.7409 94.5139 45.643 94.3824 45.5732C94.2509 45.5034 94.0912 45.4685 93.9034 45.4685C93.6887 45.4685 93.5263 45.4967 93.4162 45.5531C93.3089 45.6068 93.2136 45.6645 93.1304 45.7262ZM100.696 45.0861V45.9114C100.696 46.2522 100.653 46.5488 100.567 46.8011C100.484 47.0507 100.364 47.2573 100.208 47.421C100.056 47.5848 99.8703 47.7069 99.6529 47.7874C99.4382 47.8679 99.1994 47.9082 98.9363 47.9082C98.6733 47.9082 98.4331 47.8679 98.2157 47.7874C98.001 47.7069 97.8158 47.5848 97.6602 47.421C97.5045 47.2573 97.3837 47.0507 97.2978 46.8011C97.212 46.5488 97.169 46.2522 97.169 45.9114V45.0861C97.169 44.7452 97.2106 44.45 97.2938 44.2004C97.3797 43.9508 97.5005 43.7442 97.6561 43.5804C97.8118 43.414 97.997 43.2906 98.2117 43.2101C98.4264 43.1295 98.6653 43.0893 98.9283 43.0893C99.1913 43.0893 99.4315 43.1295 99.6489 43.2101C99.8663 43.2906 100.053 43.414 100.208 43.5804C100.364 43.7442 100.484 43.9508 100.567 44.2004C100.653 44.45 100.696 44.7452 100.696 45.0861ZM99.7214 45.9879V45.0015C99.7214 44.8056 99.7039 44.6365 99.669 44.4943C99.6341 44.3494 99.5831 44.2299 99.516 44.136C99.449 44.0421 99.3658 43.9736 99.2665 43.9307C99.1698 43.8851 99.0571 43.8622 98.9283 43.8622C98.8048 43.8622 98.6934 43.8851 98.5941 43.9307C98.4975 43.9736 98.4157 44.0421 98.3486 44.136C98.2815 44.2299 98.2305 44.3494 98.1956 44.4943C98.1607 44.6365 98.1433 44.8056 98.1433 45.0015V45.9879C98.1433 46.1865 98.1607 46.3582 98.1956 46.5032C98.2305 46.6481 98.2815 46.7675 98.3486 46.8615C98.4184 46.9554 98.5029 47.0252 98.6022 47.0708C98.7015 47.1164 98.8129 47.1392 98.9363 47.1392C99.0625 47.1392 99.1739 47.1164 99.2705 47.0708C99.3698 47.0252 99.453 46.9554 99.5201 46.8615C99.5872 46.7675 99.6368 46.6481 99.669 46.5032C99.7039 46.3582 99.7214 46.1865 99.7214 45.9879Z" fill="white"/>
<path d="M114.189 44.8438H105.195" stroke="white" stroke-width="1.49906"/>
<path d="M84.6909 117.106V121.796H83.7207V118.233L82.4485 118.567V117.802L84.5822 117.106H84.6909ZM90.7102 119.038V119.864C90.7102 120.204 90.6672 120.501 90.5814 120.753C90.4982 121.003 90.3787 121.209 90.2231 121.373C90.0701 121.537 89.8849 121.659 89.6675 121.74C89.4528 121.82 89.2139 121.86 88.9509 121.86C88.6879 121.86 88.4477 121.82 88.2303 121.74C88.0156 121.659 87.8304 121.537 87.6747 121.373C87.5191 121.209 87.3983 121.003 87.3124 120.753C87.2265 120.501 87.1836 120.204 87.1836 119.864V119.038C87.1836 118.697 87.2252 118.402 87.3084 118.153C87.3943 117.903 87.515 117.696 87.6707 117.533C87.8264 117.366 88.0116 117.243 88.2263 117.162C88.441 117.082 88.6798 117.041 88.9429 117.041C89.2059 117.041 89.4461 117.082 89.6635 117.162C89.8809 117.243 90.0674 117.366 90.2231 117.533C90.3787 117.696 90.4982 117.903 90.5814 118.153C90.6672 118.402 90.7102 118.697 90.7102 119.038ZM89.7359 119.94V118.954C89.7359 118.758 89.7185 118.589 89.6836 118.446C89.6487 118.302 89.5977 118.182 89.5306 118.088C89.4635 117.994 89.3803 117.926 89.281 117.883C89.1844 117.837 89.0717 117.814 88.9429 117.814C88.8194 117.814 88.708 117.837 88.6087 117.883C88.5121 117.926 88.4302 117.994 88.3631 118.088C88.296 118.182 88.2451 118.302 88.2102 118.446C88.1753 118.589 88.1578 118.758 88.1578 118.954V119.94C88.1578 120.139 88.1753 120.31 88.2102 120.455C88.2451 120.6 88.296 120.72 88.3631 120.814C88.4329 120.908 88.5175 120.977 88.6168 121.023C88.7161 121.069 88.8275 121.091 88.9509 121.091C89.0771 121.091 89.1884 121.069 89.2851 121.023C89.3844 120.977 89.4676 120.908 89.5346 120.814C89.6017 120.72 89.6514 120.6 89.6836 120.455C89.7185 120.31 89.7359 120.139 89.7359 119.94ZM95.7029 119.038V119.864C95.7029 120.204 95.66 120.501 95.5741 120.753C95.4909 121.003 95.3714 121.209 95.2158 121.373C95.0628 121.537 94.8776 121.659 94.6602 121.74C94.4455 121.82 94.2066 121.86 93.9436 121.86C93.6806 121.86 93.4404 121.82 93.223 121.74C93.0083 121.659 92.8231 121.537 92.6674 121.373C92.5118 121.209 92.391 121.003 92.3051 120.753C92.2192 120.501 92.1763 120.204 92.1763 119.864V119.038C92.1763 118.697 92.2179 118.402 92.3011 118.153C92.387 117.903 92.5078 117.696 92.6634 117.533C92.8191 117.366 93.0043 117.243 93.219 117.162C93.4337 117.082 93.6726 117.041 93.9356 117.041C94.1986 117.041 94.4388 117.082 94.6562 117.162C94.8736 117.243 95.0601 117.366 95.2158 117.533C95.3714 117.696 95.4909 117.903 95.5741 118.153C95.66 118.402 95.7029 118.697 95.7029 119.038ZM94.7287 119.94V118.954C94.7287 118.758 94.7112 118.589 94.6763 118.446C94.6414 118.302 94.5904 118.182 94.5233 118.088C94.4562 117.994 94.373 117.926 94.2737 117.883C94.1771 117.837 94.0644 117.814 93.9356 117.814C93.8121 117.814 93.7007 117.837 93.6014 117.883C93.5048 117.926 93.423 117.994 93.3559 118.088C93.2888 118.182 93.2378 118.302 93.2029 118.446C93.168 118.589 93.1505 118.758 93.1505 118.954V119.94C93.1505 120.139 93.168 120.31 93.2029 120.455C93.2378 120.6 93.2888 120.72 93.3559 120.814C93.4256 120.908 93.5102 120.977 93.6095 121.023C93.7088 121.069 93.8202 121.091 93.9436 121.091C94.0698 121.091 94.1811 121.069 94.2778 121.023C94.3771 120.977 94.4603 120.908 94.5274 120.814C94.5945 120.72 94.6441 120.6 94.6763 120.455C94.7112 120.31 94.7287 120.139 94.7287 119.94ZM100.696 119.038V119.864C100.696 120.204 100.653 120.501 100.567 120.753C100.484 121.003 100.364 121.209 100.208 121.373C100.056 121.537 99.8703 121.659 99.6529 121.74C99.4382 121.82 99.1994 121.86 98.9363 121.86C98.6733 121.86 98.4331 121.82 98.2157 121.74C98.001 121.659 97.8158 121.537 97.6602 121.373C97.5045 121.209 97.3837 121.003 97.2978 120.753C97.212 120.501 97.169 120.204 97.169 119.864V119.038C97.169 118.697 97.2106 118.402 97.2938 118.153C97.3797 117.903 97.5005 117.696 97.6561 117.533C97.8118 117.366 97.997 117.243 98.2117 117.162C98.4264 117.082 98.6653 117.041 98.9283 117.041C99.1913 117.041 99.4315 117.082 99.6489 117.162C99.8663 117.243 100.053 117.366 100.208 117.533C100.364 117.696 100.484 117.903 100.567 118.153C100.653 118.402 100.696 118.697 100.696 119.038ZM99.7214 119.94V118.954C99.7214 118.758 99.7039 118.589 99.669 118.446C99.6341 118.302 99.5831 118.182 99.516 118.088C99.449 117.994 99.3658 117.926 99.2665 117.883C99.1698 117.837 99.0571 117.814 98.9283 117.814C98.8048 117.814 98.6934 117.837 98.5941 117.883C98.4975 117.926 98.4157 117.994 98.3486 118.088C98.2815 118.182 98.2305 118.302 98.1956 118.446C98.1607 118.589 98.1433 118.758 98.1433 118.954V119.94C98.1433 120.139 98.1607 120.31 98.1956 120.455C98.2305 120.6 98.2815 120.72 98.3486 120.814C98.4184 120.908 98.5029 120.977 98.6022 121.023C98.7015 121.069 98.8129 121.091 98.9363 121.091C99.0625 121.091 99.1739 121.069 99.2705 121.023C99.3698 120.977 99.453 120.908 99.5201 120.814C99.5872 120.72 99.6368 120.6 99.669 120.455C99.7039 120.31 99.7214 120.139 99.7214 119.94Z" fill="white"/>
<path d="M114.189 118.796H105.195" stroke="white" stroke-width="1.49906"/>
<path d="M90.7541 191.058V191.593L88.6888 195.748H87.6663L89.7315 191.83H87.0584V191.058H90.7541ZM93.1341 193.63L92.3611 193.445L92.659 191.058H95.5173V191.843H93.4642L93.3233 192.849C93.3957 192.817 93.5058 192.779 93.6534 192.736C93.8037 192.693 93.9701 192.672 94.1526 192.672C94.4881 192.672 94.7752 192.734 95.0141 192.857C95.253 192.978 95.4355 193.154 95.5616 193.384C95.6904 193.613 95.7548 193.889 95.7548 194.214C95.7548 194.496 95.6918 194.759 95.5656 195.003C95.4395 195.244 95.2463 195.44 94.9859 195.591C94.7283 195.738 94.3995 195.812 93.9996 195.812C93.7017 195.812 93.4212 195.76 93.1582 195.655C92.8952 195.55 92.6791 195.397 92.5101 195.196C92.3437 194.995 92.2524 194.749 92.2363 194.459H93.1944C93.2159 194.661 93.2991 194.808 93.444 194.902C93.589 194.996 93.7742 195.043 93.9996 195.043C94.1875 195.043 94.3391 195.007 94.4545 194.934C94.5699 194.859 94.6531 194.759 94.7041 194.632C94.7578 194.504 94.7846 194.359 94.7846 194.198C94.7846 194.037 94.7511 193.894 94.684 193.771C94.6169 193.645 94.5176 193.547 94.3861 193.477C94.2546 193.407 94.0949 193.372 93.907 193.372C93.6923 193.372 93.5299 193.401 93.4199 193.457C93.3125 193.511 93.2173 193.568 93.1341 193.63ZM100.699 192.99V193.815C100.699 194.156 100.656 194.453 100.57 194.705C100.487 194.954 100.368 195.161 100.212 195.325C100.059 195.489 99.874 195.611 99.6566 195.691C99.4419 195.772 99.203 195.812 98.94 195.812C98.677 195.812 98.4368 195.772 98.2194 195.691C98.0047 195.611 97.8195 195.489 97.6638 195.325C97.5081 195.161 97.3874 194.954 97.3015 194.705C97.2156 194.453 97.1727 194.156 97.1727 193.815V192.99C97.1727 192.649 97.2143 192.354 97.2975 192.104C97.3833 191.855 97.5041 191.648 97.6598 191.484C97.8154 191.318 98.0006 191.194 98.2153 191.114C98.43 191.033 98.6689 190.993 98.9319 190.993C99.1949 190.993 99.4352 191.033 99.6525 191.114C99.8699 191.194 100.056 191.318 100.212 191.484C100.368 191.648 100.487 191.855 100.57 192.104C100.656 192.354 100.699 192.649 100.699 192.99ZM99.725 193.892V192.905C99.725 192.709 99.7076 192.54 99.6727 192.398C99.6378 192.253 99.5868 192.134 99.5197 192.04C99.4526 191.946 99.3694 191.877 99.2701 191.834C99.1735 191.789 99.0608 191.766 98.9319 191.766C98.8085 191.766 98.6971 191.789 98.5978 191.834C98.5012 191.877 98.4193 191.946 98.3522 192.04C98.2851 192.134 98.2341 192.253 98.1992 192.398C98.1643 192.54 98.1469 192.709 98.1469 192.905V193.892C98.1469 194.09 98.1643 194.262 98.1992 194.407C98.2341 194.552 98.2851 194.671 98.3522 194.765C98.422 194.859 98.5065 194.929 98.6058 194.975C98.7051 195.02 98.8165 195.043 98.94 195.043C99.0661 195.043 99.1775 195.02 99.2741 194.975C99.3734 194.929 99.4566 194.859 99.5237 194.765C99.5908 194.671 99.6405 194.552 99.6727 194.407C99.7076 194.262 99.725 194.09 99.725 193.892Z" fill="white"/>
<path d="M114.189 192.748H105.195" stroke="white" stroke-width="1.49906"/>
<path d="M88.1413 267.582L87.3684 267.397L87.6663 265.01H90.5246V265.795H88.4715L88.3306 266.801C88.403 266.769 88.5131 266.731 88.6607 266.688C88.811 266.645 88.9774 266.624 89.1599 266.624C89.4954 266.624 89.7825 266.686 90.0214 266.809C90.2603 266.93 90.4428 267.106 90.5689 267.337C90.6977 267.565 90.7621 267.841 90.7621 268.166C90.7621 268.448 90.6991 268.711 90.5729 268.955C90.4468 269.196 90.2535 269.392 89.9932 269.543C89.7356 269.69 89.4068 269.764 89.0069 269.764C88.709 269.764 88.4285 269.712 88.1655 269.607C87.9025 269.502 87.6864 269.349 87.5173 269.148C87.3509 268.947 87.2597 268.701 87.2436 268.411H88.2017C88.2232 268.613 88.3064 268.76 88.4513 268.854C88.5963 268.948 88.7814 268.995 89.0069 268.995C89.1948 268.995 89.3464 268.959 89.4618 268.886C89.5772 268.811 89.6604 268.711 89.7114 268.585C89.7651 268.456 89.7919 268.311 89.7919 268.15C89.7919 267.989 89.7584 267.847 89.6913 267.723C89.6242 267.597 89.5249 267.499 89.3934 267.429C89.2619 267.359 89.1022 267.324 88.9143 267.324C88.6996 267.324 88.5372 267.353 88.4272 267.409C88.3198 267.463 88.2245 267.52 88.1413 267.582ZM95.7065 266.942V267.767C95.7065 268.108 95.6636 268.405 95.5777 268.657C95.4945 268.907 95.3751 269.113 95.2194 269.277C95.0664 269.441 94.8812 269.563 94.6639 269.643C94.4491 269.724 94.2103 269.764 93.9473 269.764C93.6842 269.764 93.444 269.724 93.2266 269.643C93.0119 269.563 92.8268 269.441 92.6711 269.277C92.5154 269.113 92.3947 268.907 92.3088 268.657C92.2229 268.405 92.1799 268.108 92.1799 267.767V266.942C92.1799 266.601 92.2215 266.306 92.3047 266.056C92.3906 265.807 92.5114 265.6 92.6671 265.436C92.8227 265.27 93.0079 265.147 93.2226 265.066C93.4373 264.986 93.6762 264.945 93.9392 264.945C94.2022 264.945 94.4424 264.986 94.6598 265.066C94.8772 265.147 95.0638 265.27 95.2194 265.436C95.3751 265.6 95.4945 265.807 95.5777 266.056C95.6636 266.306 95.7065 266.601 95.7065 266.942ZM94.7323 267.844V266.857C94.7323 266.662 94.7148 266.492 94.68 266.35C94.6451 266.205 94.5941 266.086 94.527 265.992C94.4599 265.898 94.3767 265.83 94.2774 265.787C94.1808 265.741 94.068 265.718 93.9392 265.718C93.8158 265.718 93.7044 265.741 93.6051 265.787C93.5085 265.83 93.4266 265.898 93.3595 265.992C93.2924 266.086 93.2414 266.205 93.2065 266.35C93.1716 266.492 93.1542 266.662 93.1542 266.857V267.844C93.1542 268.042 93.1716 268.214 93.2065 268.359C93.2414 268.504 93.2924 268.623 93.3595 268.717C93.4293 268.811 93.5138 268.881 93.6131 268.927C93.7124 268.972 93.8238 268.995 93.9473 268.995C94.0734 268.995 94.1848 268.972 94.2814 268.927C94.3807 268.881 94.4639 268.811 94.531 268.717C94.5981 268.623 94.6478 268.504 94.68 268.359C94.7148 268.214 94.7323 268.042 94.7323 267.844ZM100.699 266.942V267.767C100.699 268.108 100.656 268.405 100.57 268.657C100.487 268.907 100.368 269.113 100.212 269.277C100.059 269.441 99.874 269.563 99.6566 269.643C99.4419 269.724 99.203 269.764 98.94 269.764C98.677 269.764 98.4368 269.724 98.2194 269.643C98.0047 269.563 97.8195 269.441 97.6638 269.277C97.5081 269.113 97.3874 268.907 97.3015 268.657C97.2156 268.405 97.1727 268.108 97.1727 267.767V266.942C97.1727 266.601 97.2143 266.306 97.2975 266.056C97.3833 265.807 97.5041 265.6 97.6598 265.436C97.8154 265.27 98.0006 265.147 98.2153 265.066C98.43 264.986 98.6689 264.945 98.9319 264.945C99.1949 264.945 99.4352 264.986 99.6525 265.066C99.8699 265.147 100.056 265.27 100.212 265.436C100.368 265.6 100.487 265.807 100.57 266.056C100.656 266.306 100.699 266.601 100.699 266.942ZM99.725 267.844V266.857C99.725 266.662 99.7076 266.492 99.6727 266.35C99.6378 266.205 99.5868 266.086 99.5197 265.992C99.4526 265.898 99.3694 265.83 99.2701 265.787C99.1735 265.741 99.0608 265.718 98.9319 265.718C98.8085 265.718 98.6971 265.741 98.5978 265.787C98.5012 265.83 98.4193 265.898 98.3522 265.992C98.2851 266.086 98.2341 266.205 98.1992 266.35C98.1643 266.492 98.1469 266.662 98.1469 266.857V267.844C98.1469 268.042 98.1643 268.214 98.1992 268.359C98.2341 268.504 98.2851 268.623 98.3522 268.717C98.422 268.811 98.5065 268.881 98.6058 268.927C98.7051 268.972 98.8165 268.995 98.94 268.995C99.0661 268.995 99.1775 268.972 99.2741 268.927C99.3734 268.881 99.4566 268.811 99.5237 268.717C99.5908 268.623 99.6405 268.504 99.6727 268.359C99.7076 268.214 99.725 268.042 99.725 267.844Z" fill="white"/>
<path d="M114.189 266.7H105.195" stroke="white" stroke-width="1.49906"/>
<path d="M90.7863 342.883V343.652H87.2074V342.996L88.9183 341.393C89.0955 341.23 89.235 341.083 89.337 340.955C89.4417 340.823 89.5168 340.705 89.5624 340.6C89.6081 340.493 89.6309 340.396 89.6309 340.31C89.6309 340.123 89.5692 339.968 89.4457 339.847C89.3222 339.727 89.1451 339.666 88.9143 339.666C88.7237 339.666 88.5654 339.701 88.4393 339.771C88.3158 339.838 88.2245 339.931 88.1655 340.049C88.1065 340.167 88.0769 340.301 88.0769 340.451H87.1027C87.1027 340.167 87.1738 339.907 87.3161 339.67C87.4583 339.434 87.6623 339.246 87.928 339.107C88.1964 338.967 88.5171 338.897 88.8901 338.897C89.2498 338.897 89.5571 338.954 89.812 339.066C90.0697 339.179 90.2656 339.342 90.3998 339.554C90.534 339.763 90.6011 340.011 90.6011 340.298C90.6011 340.457 90.5743 340.607 90.5206 340.749C90.4696 340.892 90.3944 341.03 90.2951 341.164C90.1958 341.298 90.0751 341.435 89.9328 341.575C89.7906 341.714 89.6295 341.863 89.4497 342.021L88.4513 342.883H90.7863ZM93.1341 341.534L92.3611 341.349L92.659 338.962H95.5173V339.747H93.4642L93.3233 340.753C93.3957 340.721 93.5058 340.684 93.6534 340.641C93.8037 340.598 93.9701 340.576 94.1526 340.576C94.4881 340.576 94.7752 340.638 95.0141 340.761C95.253 340.882 95.4355 341.058 95.5616 341.289C95.6904 341.517 95.7548 341.793 95.7548 342.118C95.7548 342.4 95.6918 342.663 95.5656 342.907C95.4395 343.149 95.2463 343.345 94.9859 343.495C94.7283 343.642 94.3995 343.716 93.9996 343.716C93.7017 343.716 93.4212 343.664 93.1582 343.559C92.8952 343.455 92.6791 343.302 92.5101 343.1C92.3437 342.899 92.2524 342.653 92.2363 342.364H93.1944C93.2159 342.565 93.2991 342.713 93.444 342.806C93.589 342.9 93.7742 342.947 93.9996 342.947C94.1875 342.947 94.3391 342.911 94.4545 342.839C94.5699 342.763 94.6531 342.663 94.7041 342.537C94.7578 342.408 94.7846 342.263 94.7846 342.102C94.7846 341.941 94.7511 341.799 94.684 341.675C94.6169 341.549 94.5176 341.451 94.3861 341.381C94.2546 341.312 94.0949 341.277 93.907 341.277C93.6923 341.277 93.5299 341.305 93.4199 341.361C93.3125 341.415 93.2173 341.473 93.1341 341.534ZM100.699 340.894V341.719C100.699 342.06 100.656 342.357 100.57 342.609C100.487 342.859 100.368 343.065 100.212 343.229C100.059 343.393 99.874 343.515 99.6566 343.595C99.4419 343.676 99.203 343.716 98.94 343.716C98.677 343.716 98.4368 343.676 98.2194 343.595C98.0047 343.515 97.8195 343.393 97.6638 343.229C97.5081 343.065 97.3874 342.859 97.3015 342.609C97.2156 342.357 97.1727 342.06 97.1727 341.719V340.894C97.1727 340.553 97.2143 340.258 97.2975 340.009C97.3833 339.759 97.5041 339.552 97.6598 339.389C97.8154 339.222 98.0006 339.099 98.2153 339.018C98.43 338.938 98.6689 338.897 98.9319 338.897C99.1949 338.897 99.4352 338.938 99.6525 339.018C99.8699 339.099 100.056 339.222 100.212 339.389C100.368 339.552 100.487 339.759 100.57 340.009C100.656 340.258 100.699 340.553 100.699 340.894ZM99.725 341.796V340.81C99.725 340.614 99.7076 340.445 99.6727 340.302C99.6378 340.157 99.5868 340.038 99.5197 339.944C99.4526 339.85 99.3694 339.782 99.2701 339.739C99.1735 339.693 99.0608 339.67 98.9319 339.67C98.8085 339.67 98.6971 339.693 98.5978 339.739C98.5012 339.782 98.4193 339.85 98.3522 339.944C98.2851 340.038 98.2341 340.157 98.1992 340.302C98.1643 340.445 98.1469 340.614 98.1469 340.81V341.796C98.1469 341.995 98.1643 342.166 98.1992 342.311C98.2341 342.456 98.2851 342.576 98.3522 342.67C98.422 342.763 98.5065 342.833 98.6058 342.879C98.7051 342.925 98.8165 342.947 98.94 342.947C99.0661 342.947 99.1775 342.925 99.2741 342.879C99.3734 342.833 99.4566 342.763 99.5237 342.67C99.5908 342.576 99.6405 342.456 99.6727 342.311C99.7076 342.166 99.725 341.995 99.725 341.796Z" fill="white"/>
<path d="M114.189 340.652H105.195" stroke="white" stroke-width="1.49906"/>
<path d="M113.677 353.147H814.487" stroke="white" stroke-width="0.749529"/>
<path d="M115.925 353.147V360.642" stroke="white" stroke-width="0.749529"/>
<path d="M117.936 369.632V370.458C117.936 370.798 117.893 371.095 117.807 371.347C117.724 371.597 117.605 371.804 117.449 371.967C117.296 372.131 117.111 372.253 116.893 372.334C116.679 372.414 116.44 372.455 116.177 372.455C115.914 372.455 115.673 372.414 115.456 372.334C115.241 372.253 115.056 372.131 114.9 371.967C114.745 371.804 114.624 371.597 114.538 371.347C114.452 371.095 114.409 370.798 114.409 370.458V369.632C114.409 369.291 114.451 368.996 114.534 368.747C114.62 368.497 114.741 368.29 114.896 368.126C115.052 367.96 115.237 367.837 115.452 367.756C115.667 367.676 115.906 367.635 116.169 367.635C116.432 367.635 116.672 367.676 116.889 367.756C117.107 367.837 117.293 367.96 117.449 368.126C117.605 368.29 117.724 368.497 117.807 368.747C117.893 368.996 117.936 369.291 117.936 369.632ZM116.962 370.534V369.548C116.962 369.352 116.944 369.183 116.91 369.04C116.875 368.895 116.824 368.776 116.757 368.682C116.689 368.588 116.606 368.52 116.507 368.477C116.41 368.431 116.298 368.408 116.169 368.408C116.045 368.408 115.934 368.431 115.835 368.477C115.738 368.52 115.656 368.588 115.589 368.682C115.522 368.776 115.471 368.895 115.436 369.04C115.401 369.183 115.384 369.352 115.384 369.548V370.534C115.384 370.733 115.401 370.904 115.436 371.049C115.471 371.194 115.522 371.314 115.589 371.408C115.659 371.502 115.743 371.571 115.843 371.617C115.942 371.663 116.053 371.686 116.177 371.686C116.303 371.686 116.414 371.663 116.511 371.617C116.61 371.571 116.693 371.502 116.761 371.408C116.828 371.314 116.877 371.194 116.91 371.049C116.944 370.904 116.962 370.733 116.962 370.534Z" fill="white"/>
<path d="M156.48 353.147V360.642" stroke="white" stroke-width="0.749529"/>
<path d="M157.465 367.7V372.39H156.495V368.827L155.223 369.161V368.397L157.356 367.7H157.465Z" fill="white"/>
<path d="M197.036 353.147V360.642" stroke="white" stroke-width="0.749529"/>
<path d="M199.12 371.621V372.39H195.541V371.734L197.252 370.132C197.429 369.968 197.569 369.822 197.671 369.693C197.775 369.561 197.85 369.443 197.896 369.339C197.942 369.231 197.964 369.135 197.964 369.049C197.964 368.861 197.903 368.707 197.779 368.586C197.656 368.465 197.479 368.405 197.248 368.405C197.057 368.405 196.899 368.439 196.773 368.509C196.649 368.576 196.558 368.669 196.499 368.787C196.44 368.905 196.41 369.039 196.41 369.19H195.436C195.436 368.905 195.507 368.645 195.65 368.409C195.792 368.172 195.996 367.985 196.262 367.845C196.53 367.705 196.851 367.636 197.224 367.636C197.583 367.636 197.891 367.692 198.146 367.805C198.403 367.917 198.599 368.08 198.733 368.292C198.868 368.501 198.935 368.749 198.935 369.037C198.935 369.195 198.908 369.345 198.854 369.488C198.803 369.63 198.728 369.768 198.629 369.902C198.529 370.036 198.409 370.173 198.266 370.313C198.124 370.452 197.963 370.601 197.783 370.76L196.785 371.621H199.12Z" fill="white"/>
<path d="M237.592 353.147V360.642" stroke="white" stroke-width="0.749529"/>
<path d="M239.768 370.607V371.38H235.968L235.927 370.772L238.158 367.7H238.919L238.081 369.065L236.902 370.607H239.768ZM239.144 367.7V372.39H238.174V367.7H239.144Z" fill="white"/>
<path d="M278.147 353.147V360.642" stroke="white" stroke-width="0.749529"/>
<path d="M279.321 367.644H279.458V368.433H279.394C279.107 368.433 278.853 368.465 278.633 368.529C278.416 368.591 278.232 368.686 278.081 368.815C277.934 368.944 277.821 369.106 277.743 369.302C277.668 369.498 277.63 369.728 277.63 369.991V370.679C277.63 370.846 277.651 370.992 277.691 371.118C277.734 371.244 277.793 371.35 277.868 371.436C277.943 371.519 278.032 371.582 278.134 371.625C278.238 371.665 278.351 371.686 278.472 371.686C278.636 371.686 278.778 371.649 278.899 371.577C279.019 371.502 279.112 371.401 279.176 371.275C279.243 371.146 279.277 371.004 279.277 370.848C279.277 370.687 279.245 370.546 279.18 370.426C279.119 370.305 279.027 370.211 278.907 370.144C278.789 370.074 278.644 370.039 278.472 370.039C278.3 370.039 278.146 370.073 278.009 370.14C277.875 370.204 277.767 370.287 277.687 370.389C277.609 370.491 277.567 370.599 277.562 370.711L277.3 370.426C277.308 370.254 277.371 370.081 277.49 369.906C277.608 369.729 277.773 369.58 277.985 369.459C278.197 369.336 278.448 369.274 278.738 369.274C279.073 369.274 279.351 369.344 279.571 369.484C279.794 369.623 279.96 369.812 280.07 370.051C280.183 370.287 280.239 370.55 280.239 370.84C280.239 371.146 280.168 371.421 280.026 371.665C279.884 371.907 279.682 372.099 279.422 372.241C279.162 372.383 278.852 372.455 278.492 372.455C278.213 372.455 277.961 372.412 277.735 372.326C277.51 372.237 277.316 372.112 277.155 371.951C276.997 371.788 276.875 371.592 276.789 371.364C276.703 371.133 276.66 370.874 276.66 370.587V370.265C276.66 369.854 276.718 369.488 276.833 369.165C276.951 368.841 277.123 368.566 277.349 368.34C277.577 368.112 277.856 367.939 278.186 367.821C278.516 367.703 278.895 367.644 279.321 367.644Z" fill="white"/>
<path d="M318.702 353.147V360.642" stroke="white" stroke-width="0.749529"/>
<path d="M320.721 371.106C320.721 371.329 320.676 371.525 320.585 371.694C320.496 371.86 320.373 372 320.214 372.112C320.056 372.225 319.869 372.311 319.655 372.37C319.44 372.426 319.206 372.455 318.954 372.455C318.619 372.455 318.317 372.405 318.048 372.306C317.783 372.204 317.572 372.052 317.416 371.851C317.261 371.649 317.183 371.401 317.183 371.106C317.183 370.902 317.226 370.721 317.312 370.562C317.4 370.401 317.524 370.265 317.682 370.152C317.843 370.036 318.03 369.949 318.242 369.89C318.456 369.828 318.691 369.798 318.946 369.798C319.201 369.798 319.436 369.828 319.651 369.89C319.868 369.949 320.056 370.036 320.214 370.152C320.375 370.265 320.5 370.401 320.589 370.562C320.677 370.721 320.721 370.902 320.721 371.106ZM319.747 371.029C319.747 370.893 319.714 370.776 319.647 370.679C319.579 370.583 319.486 370.509 319.365 370.458C319.244 370.404 319.104 370.377 318.946 370.377C318.788 370.377 318.648 370.404 318.527 370.458C318.409 370.509 318.317 370.583 318.25 370.679C318.185 370.776 318.153 370.893 318.153 371.029C318.153 371.166 318.185 371.284 318.25 371.384C318.317 371.48 318.411 371.555 318.531 371.609C318.652 371.66 318.793 371.686 318.954 371.686C319.112 371.686 319.251 371.66 319.369 371.609C319.49 371.555 319.582 371.48 319.647 371.384C319.714 371.284 319.747 371.166 319.747 371.029ZM320.605 368.948C320.605 369.131 320.563 369.297 320.48 369.447C320.399 369.595 320.285 369.724 320.138 369.834C319.99 369.941 319.816 370.024 319.614 370.083C319.416 370.14 319.196 370.168 318.954 370.168C318.713 370.168 318.491 370.14 318.29 370.083C318.089 370.024 317.914 369.941 317.766 369.834C317.619 369.724 317.503 369.595 317.42 369.447C317.34 369.297 317.3 369.131 317.3 368.948C317.3 368.664 317.369 368.425 317.509 368.231C317.651 368.036 317.847 367.888 318.097 367.789C318.346 367.687 318.629 367.636 318.946 367.636C319.268 367.636 319.553 367.687 319.8 367.789C320.049 367.888 320.245 368.036 320.387 368.231C320.532 368.425 320.605 368.664 320.605 368.948ZM319.634 368.996C319.634 368.878 319.606 368.775 319.55 368.686C319.494 368.595 319.414 368.525 319.312 368.477C319.21 368.429 319.088 368.405 318.946 368.405C318.806 368.405 318.686 368.429 318.584 368.477C318.484 368.525 318.407 368.594 318.35 368.682C318.297 368.768 318.27 368.873 318.27 368.996C318.27 369.117 318.297 369.223 318.35 369.314C318.407 369.406 318.486 369.477 318.588 369.528C318.692 369.579 318.815 369.604 318.954 369.604C319.096 369.604 319.217 369.579 319.316 369.528C319.418 369.477 319.496 369.406 319.55 369.314C319.606 369.223 319.634 369.117 319.634 368.996Z" fill="white"/>
<path d="M361.507 353.147V360.642" stroke="white" stroke-width="0.749529"/>
<path d="M360.246 367.7V372.39H359.276V368.827L358.004 369.161V368.397L360.137 367.7H360.246ZM366.265 369.632V370.458C366.265 370.799 366.222 371.095 366.137 371.347C366.053 371.597 365.934 371.804 365.778 371.967C365.625 372.131 365.44 372.253 365.223 372.334C365.008 372.414 364.769 372.455 364.506 372.455C364.243 372.455 364.003 372.414 363.786 372.334C363.571 372.253 363.386 372.131 363.23 371.967C363.074 371.804 362.954 371.597 362.868 371.347C362.782 371.095 362.739 370.799 362.739 370.458V369.632C362.739 369.292 362.78 368.996 362.864 368.747C362.949 368.497 363.07 368.291 363.226 368.127C363.382 367.96 363.567 367.837 363.781 367.756C363.996 367.676 364.235 367.636 364.498 367.636C364.761 367.636 365.001 367.676 365.219 367.756C365.436 367.837 365.623 367.96 365.778 368.127C365.934 368.291 366.053 368.497 366.137 368.747C366.222 368.996 366.265 369.292 366.265 369.632ZM365.291 370.534V369.548C365.291 369.352 365.274 369.183 365.239 369.041C365.204 368.896 365.153 368.776 365.086 368.682C365.019 368.588 364.936 368.52 364.836 368.477C364.74 368.431 364.627 368.409 364.498 368.409C364.375 368.409 364.263 368.431 364.164 368.477C364.067 368.52 363.985 368.588 363.918 368.682C363.851 368.776 363.8 368.896 363.765 369.041C363.73 369.183 363.713 369.352 363.713 369.548V370.534C363.713 370.733 363.73 370.905 363.765 371.05C363.8 371.194 363.851 371.314 363.918 371.408C363.988 371.502 364.073 371.572 364.172 371.617C364.271 371.663 364.383 371.686 364.506 371.686C364.632 371.686 364.744 371.663 364.84 371.617C364.94 371.572 365.023 371.502 365.09 371.408C365.157 371.314 365.207 371.194 365.239 371.05C365.274 370.905 365.291 370.733 365.291 370.534Z" fill="white"/>
<path d="M407.062 353.147V360.642" stroke="white" stroke-width="0.749529"/>
<path d="M405.802 367.7V372.39H404.832V368.827L403.559 369.161V368.397L405.693 367.7H405.802ZM411.894 371.621V372.39H408.315V371.734L410.026 370.132C410.203 369.968 410.342 369.822 410.444 369.693C410.549 369.561 410.624 369.443 410.67 369.339C410.715 369.231 410.738 369.135 410.738 369.049C410.738 368.861 410.676 368.707 410.553 368.586C410.429 368.465 410.252 368.405 410.022 368.405C409.831 368.405 409.673 368.439 409.546 368.509C409.423 368.576 409.332 368.669 409.273 368.787C409.214 368.905 409.184 369.039 409.184 369.19H408.21C408.21 368.905 408.281 368.645 408.423 368.409C408.566 368.172 408.77 367.985 409.035 367.845C409.304 367.705 409.624 367.636 409.997 367.636C410.357 367.636 410.664 367.692 410.919 367.805C411.177 367.917 411.373 368.08 411.507 368.292C411.641 368.501 411.708 368.749 411.708 369.037C411.708 369.195 411.681 369.345 411.628 369.488C411.577 369.63 411.502 369.768 411.402 369.902C411.303 370.036 411.182 370.173 411.04 370.313C410.898 370.452 410.737 370.601 410.557 370.76L409.559 371.621H411.894Z" fill="white"/>
<path d="M452.618 353.147V360.642" stroke="white" stroke-width="0.749529"/>
<path d="M451.357 367.7V372.39H450.387V368.827L449.115 369.161V368.397L451.249 367.7H451.357ZM457.542 370.607V371.38H453.741L453.701 370.772L455.931 367.7H456.692L455.855 369.065L454.675 370.607H457.542ZM456.918 367.7V372.39H455.948V367.7H456.918Z" fill="white"/>
<path d="M498.175 353.147V360.642" stroke="white" stroke-width="0.749529"/>
<path d="M496.913 367.7V372.39H495.943V368.827L494.671 369.161V368.397L496.804 367.7H496.913ZM502.095 367.644H502.232V368.433H502.167C501.88 368.433 501.627 368.465 501.407 368.529C501.189 368.591 501.005 368.686 500.855 368.815C500.707 368.944 500.595 369.106 500.517 369.302C500.442 369.498 500.404 369.728 500.404 369.991V370.679C500.404 370.846 500.424 370.992 500.465 371.118C500.508 371.244 500.567 371.35 500.642 371.436C500.717 371.519 500.805 371.582 500.907 371.625C501.012 371.665 501.125 371.686 501.246 371.686C501.409 371.686 501.552 371.649 501.672 371.577C501.793 371.502 501.886 371.401 501.95 371.275C502.017 371.146 502.051 371.004 502.051 370.848C502.051 370.687 502.019 370.546 501.954 370.426C501.892 370.305 501.801 370.211 501.68 370.144C501.562 370.074 501.417 370.039 501.246 370.039C501.074 370.039 500.919 370.073 500.783 370.14C500.648 370.204 500.541 370.287 500.461 370.389C500.383 370.491 500.341 370.599 500.336 370.711L500.074 370.426C500.082 370.254 500.145 370.081 500.263 369.906C500.381 369.729 500.546 369.58 500.758 369.459C500.97 369.336 501.221 369.274 501.511 369.274C501.847 369.274 502.125 369.344 502.345 369.484C502.567 369.623 502.734 369.812 502.844 370.051C502.957 370.287 503.013 370.55 503.013 370.84C503.013 371.146 502.942 371.421 502.8 371.665C502.657 371.907 502.456 372.099 502.196 372.241C501.935 372.383 501.625 372.455 501.266 372.455C500.987 372.455 500.734 372.412 500.509 372.326C500.283 372.237 500.09 372.112 499.929 371.951C499.771 371.788 499.649 371.592 499.563 371.364C499.477 371.133 499.434 370.874 499.434 370.587V370.265C499.434 369.854 499.492 369.488 499.607 369.165C499.725 368.841 499.897 368.566 500.122 368.34C500.351 368.112 500.63 367.939 500.96 367.821C501.29 367.703 501.668 367.644 502.095 367.644Z" fill="white"/>
<path d="M543.729 353.147V360.642" stroke="white" stroke-width="0.749529"/>
<path d="M542.469 367.7V372.39H541.499V368.827L540.226 369.161V368.397L542.36 367.7H542.469ZM548.496 371.106C548.496 371.329 548.45 371.525 548.359 371.694C548.271 371.86 548.147 372 547.989 372.112C547.831 372.225 547.644 372.311 547.429 372.37C547.215 372.426 546.981 372.455 546.729 372.455C546.393 372.455 546.091 372.405 545.823 372.306C545.557 372.204 545.347 372.052 545.191 371.851C545.035 371.649 544.957 371.401 544.957 371.106C544.957 370.902 545 370.721 545.086 370.562C545.175 370.401 545.298 370.265 545.457 370.152C545.618 370.036 545.804 369.949 546.016 369.89C546.231 369.828 546.466 369.798 546.721 369.798C546.976 369.798 547.211 369.828 547.425 369.89C547.643 369.949 547.831 370.036 547.989 370.152C548.15 370.265 548.275 370.401 548.363 370.562C548.452 370.721 548.496 370.902 548.496 371.106ZM547.522 371.029C547.522 370.893 547.488 370.776 547.421 370.679C547.354 370.583 547.26 370.509 547.139 370.458C547.019 370.404 546.879 370.377 546.721 370.377C546.562 370.377 546.423 370.404 546.302 370.458C546.184 370.509 546.091 370.583 546.024 370.679C545.96 370.776 545.928 370.893 545.928 371.029C545.928 371.166 545.96 371.284 546.024 371.384C546.091 371.48 546.185 371.555 546.306 371.609C546.427 371.66 546.568 371.686 546.729 371.686C546.887 371.686 547.025 371.66 547.143 371.609C547.264 371.555 547.357 371.48 547.421 371.384C547.488 371.284 547.522 371.166 547.522 371.029ZM548.379 368.948C548.379 369.131 548.338 369.297 548.255 369.447C548.174 369.595 548.06 369.724 547.912 369.834C547.765 369.941 547.59 370.024 547.389 370.083C547.19 370.14 546.97 370.168 546.729 370.168C546.487 370.168 546.266 370.14 546.065 370.083C545.863 370.024 545.689 369.941 545.541 369.834C545.394 369.724 545.278 369.595 545.195 369.447C545.114 369.297 545.074 369.131 545.074 368.948C545.074 368.664 545.144 368.425 545.284 368.231C545.426 368.036 545.622 367.888 545.871 367.789C546.121 367.687 546.404 367.636 546.721 367.636C547.043 367.636 547.327 367.687 547.574 367.789C547.824 367.888 548.02 368.036 548.162 368.231C548.307 368.425 548.379 368.664 548.379 368.948ZM547.409 368.996C547.409 368.878 547.381 368.775 547.325 368.686C547.268 368.595 547.189 368.525 547.087 368.477C546.985 368.429 546.863 368.405 546.721 368.405C546.581 368.405 546.46 368.429 546.358 368.477C546.259 368.525 546.181 368.594 546.125 368.682C546.071 368.768 546.044 368.873 546.044 368.996C546.044 369.117 546.071 369.223 546.125 369.314C546.181 369.406 546.26 369.477 546.362 369.528C546.467 369.579 546.589 369.604 546.729 369.604C546.871 369.604 546.992 369.579 547.091 369.528C547.193 369.477 547.271 369.406 547.325 369.314C547.381 369.223 547.409 369.117 547.409 368.996Z" fill="white"/>
<path d="M589.285 353.147V360.642" stroke="white" stroke-width="0.749529"/>
<path d="M589.123 371.621V372.39H585.545V371.734L587.255 370.132C587.433 369.968 587.572 369.822 587.674 369.693C587.779 369.561 587.854 369.443 587.9 369.339C587.945 369.231 587.968 369.135 587.968 369.049C587.968 368.861 587.906 368.707 587.783 368.586C587.659 368.465 587.482 368.405 587.251 368.405C587.061 368.405 586.903 368.439 586.776 368.509C586.653 368.576 586.562 368.669 586.503 368.787C586.444 368.905 586.414 369.039 586.414 369.19H585.44C585.44 368.905 585.511 368.645 585.653 368.409C585.795 368.172 585.999 367.985 586.265 367.845C586.534 367.705 586.854 367.636 587.227 367.636C587.587 367.636 587.894 367.692 588.149 367.805C588.407 367.917 588.603 368.08 588.737 368.292C588.871 368.501 588.938 368.749 588.938 369.037C588.938 369.195 588.911 369.345 588.858 369.488C588.807 369.63 588.732 369.768 588.632 369.902C588.533 370.036 588.412 370.173 588.27 370.313C588.128 370.452 587.967 370.601 587.787 370.76L586.789 371.621H589.123ZM594.044 369.632V370.458C594.044 370.799 594.001 371.095 593.915 371.347C593.832 371.597 593.712 371.804 593.557 371.967C593.404 372.131 593.218 372.253 593.001 372.334C592.786 372.414 592.547 372.455 592.284 372.455C592.021 372.455 591.781 372.414 591.564 372.334C591.349 372.253 591.164 372.131 591.008 371.967C590.853 371.804 590.732 371.597 590.646 371.347C590.56 371.095 590.517 370.799 590.517 370.458V369.632C590.517 369.292 590.559 368.996 590.642 368.747C590.728 368.497 590.849 368.291 591.004 368.127C591.16 367.96 591.345 367.837 591.56 367.756C591.775 367.676 592.013 367.636 592.276 367.636C592.539 367.636 592.78 367.676 592.997 367.756C593.214 367.837 593.401 367.96 593.557 368.127C593.712 368.291 593.832 368.497 593.915 368.747C594.001 368.996 594.044 369.292 594.044 369.632ZM593.069 370.534V369.548C593.069 369.352 593.052 369.183 593.017 369.041C592.982 368.896 592.931 368.776 592.864 368.682C592.797 368.588 592.714 368.52 592.615 368.477C592.518 368.431 592.405 368.409 592.276 368.409C592.153 368.409 592.042 368.431 591.942 368.477C591.846 368.52 591.764 368.588 591.697 368.682C591.63 368.776 591.579 368.896 591.544 369.041C591.509 369.183 591.491 369.352 591.491 369.548V370.534C591.491 370.733 591.509 370.905 591.544 371.05C591.579 371.194 591.63 371.314 591.697 371.408C591.766 371.502 591.851 371.572 591.95 371.617C592.05 371.663 592.161 371.686 592.284 371.686C592.411 371.686 592.522 371.663 592.619 371.617C592.718 371.572 592.801 371.502 592.868 371.408C592.935 371.314 592.985 371.194 593.017 371.05C593.052 370.905 593.069 370.733 593.069 370.534Z" fill="white"/>
<path d="M634.841 353.147V360.642" stroke="white" stroke-width="0.749529"/>
<path d="M634.679 371.621V372.39H631.1V371.734L632.811 370.132C632.988 369.968 633.128 369.822 633.23 369.693C633.335 369.561 633.41 369.443 633.455 369.339C633.501 369.231 633.524 369.135 633.524 369.049C633.524 368.861 633.462 368.707 633.339 368.586C633.215 368.465 633.038 368.405 632.807 368.405C632.617 368.405 632.458 368.439 632.332 368.509C632.209 368.576 632.117 368.669 632.058 368.787C631.999 368.905 631.97 369.039 631.97 369.19H630.996C630.996 368.905 631.067 368.645 631.209 368.409C631.351 368.172 631.555 367.985 631.821 367.845C632.089 367.705 632.41 367.636 632.783 367.636C633.143 367.636 633.45 367.692 633.705 367.805C633.963 367.917 634.158 368.08 634.293 368.292C634.427 368.501 634.494 368.749 634.494 369.037C634.494 369.195 634.467 369.345 634.413 369.488C634.362 369.63 634.287 369.768 634.188 369.902C634.089 370.036 633.968 370.173 633.826 370.313C633.683 370.452 633.522 370.601 633.343 370.76L632.344 371.621H634.679ZM639.672 371.621V372.39H636.093V371.734L637.804 370.132C637.981 369.968 638.121 369.822 638.223 369.693C638.327 369.561 638.402 369.443 638.448 369.339C638.494 369.231 638.516 369.135 638.516 369.049C638.516 368.861 638.455 368.707 638.331 368.586C638.208 368.465 638.031 368.405 637.8 368.405C637.609 368.405 637.451 368.439 637.325 368.509C637.201 368.576 637.11 368.669 637.051 368.787C636.992 368.905 636.962 369.039 636.962 369.19H635.988C635.988 368.905 636.059 368.645 636.202 368.409C636.344 368.172 636.548 367.985 636.814 367.845C637.082 367.705 637.403 367.636 637.776 367.636C638.135 367.636 638.443 367.692 638.698 367.805C638.955 367.917 639.151 368.08 639.285 368.292C639.42 368.501 639.487 368.749 639.487 369.037C639.487 369.195 639.46 369.345 639.406 369.488C639.355 369.63 639.28 369.768 639.181 369.902C639.081 370.036 638.961 370.173 638.818 370.313C638.676 370.452 638.515 370.601 638.335 370.76L637.337 371.621H639.672Z" fill="white"/>
<path d="M680.396 353.147V360.642" stroke="white" stroke-width="0.749529"/>
<path d="M680.234 371.621V372.39H676.655V371.734L678.366 370.132C678.543 369.968 678.683 369.822 678.785 369.693C678.889 369.561 678.964 369.443 679.01 369.339C679.056 369.231 679.078 369.135 679.078 369.049C679.078 368.861 679.017 368.707 678.893 368.586C678.77 368.465 678.593 368.405 678.362 368.405C678.171 368.405 678.013 368.439 677.887 368.509C677.763 368.576 677.672 368.669 677.613 368.787C677.554 368.905 677.524 369.039 677.524 369.19H676.55C676.55 368.905 676.621 368.645 676.764 368.409C676.906 368.172 677.11 367.985 677.376 367.845C677.644 367.705 677.965 367.636 678.338 367.636C678.697 367.636 679.005 367.692 679.26 367.805C679.517 367.917 679.713 368.08 679.847 368.292C679.982 368.501 680.049 368.749 680.049 369.037C680.049 369.195 680.022 369.345 679.968 369.488C679.917 369.63 679.842 369.768 679.743 369.902C679.643 370.036 679.523 370.173 679.38 370.313C679.238 370.452 679.077 370.601 678.897 370.76L677.899 371.621H680.234ZM685.319 370.607V371.38H681.519L681.479 370.772L683.709 367.7H684.47L683.632 369.065L682.453 370.607H685.319ZM684.695 367.7V372.39H683.725V367.7H684.695Z" fill="white"/>
<path d="M725.951 353.147V360.642" stroke="white" stroke-width="0.749529"/>
<path d="M725.789 371.621V372.39H722.211V371.734L723.922 370.132C724.099 369.968 724.238 369.822 724.34 369.693C724.445 369.561 724.52 369.443 724.566 369.339C724.611 369.231 724.634 369.135 724.634 369.049C724.634 368.861 724.572 368.707 724.449 368.586C724.325 368.465 724.148 368.405 723.917 368.405C723.727 368.405 723.569 368.439 723.442 368.509C723.319 368.576 723.228 368.669 723.169 368.787C723.11 368.905 723.08 369.039 723.08 369.19H722.106C722.106 368.905 722.177 368.645 722.319 368.409C722.461 368.172 722.665 367.985 722.931 367.845C723.2 367.705 723.52 367.636 723.893 367.636C724.253 367.636 724.56 367.692 724.815 367.805C725.073 367.917 725.269 368.08 725.403 368.292C725.537 368.501 725.604 368.749 725.604 369.037C725.604 369.195 725.577 369.345 725.524 369.488C725.473 369.63 725.398 369.768 725.298 369.902C725.199 370.036 725.078 370.173 724.936 370.313C724.794 370.452 724.633 370.601 724.453 370.76L723.455 371.621H725.789ZM729.872 367.644H730.009V368.433H729.945C729.658 368.433 729.404 368.465 729.184 368.529C728.967 368.591 728.783 368.686 728.632 368.815C728.485 368.944 728.372 369.106 728.294 369.302C728.219 369.498 728.182 369.728 728.182 369.991V370.679C728.182 370.846 728.202 370.992 728.242 371.118C728.285 371.244 728.344 371.35 728.419 371.436C728.494 371.519 728.583 371.582 728.685 371.625C728.789 371.665 728.902 371.686 729.023 371.686C729.187 371.686 729.329 371.649 729.45 371.577C729.57 371.502 729.663 371.401 729.727 371.275C729.795 371.146 729.828 371.004 729.828 370.848C729.828 370.687 729.796 370.546 729.731 370.426C729.67 370.305 729.578 370.211 729.458 370.144C729.34 370.074 729.195 370.039 729.023 370.039C728.851 370.039 728.697 370.073 728.56 370.14C728.426 370.204 728.318 370.287 728.238 370.389C728.16 370.491 728.118 370.599 728.113 370.711L727.851 370.426C727.859 370.254 727.923 370.081 728.041 369.906C728.159 369.729 728.324 369.58 728.536 369.459C728.748 369.336 728.999 369.274 729.289 369.274C729.624 369.274 729.902 369.344 730.122 369.484C730.345 369.623 730.511 369.812 730.621 370.051C730.734 370.287 730.79 370.55 730.79 370.84C730.79 371.146 730.719 371.421 730.577 371.665C730.435 371.907 730.233 372.099 729.973 372.241C729.713 372.383 729.403 372.455 729.043 372.455C728.764 372.455 728.512 372.412 728.286 372.326C728.061 372.237 727.868 372.112 727.706 371.951C727.548 371.788 727.426 371.592 727.34 371.364C727.254 371.133 727.211 370.874 727.211 370.587V370.265C727.211 369.854 727.269 369.488 727.384 369.165C727.503 368.841 727.674 368.566 727.9 368.34C728.128 368.112 728.407 367.939 728.737 367.821C729.067 367.703 729.446 367.644 729.872 367.644Z" fill="white"/>
<path d="M808.983 353.147V360.642" stroke="white" stroke-width="0.749529"/>
<path d="M806.33 369.657H806.837C807.028 369.657 807.185 369.63 807.308 369.576C807.431 369.52 807.523 369.443 807.582 369.347C807.643 369.25 807.674 369.139 807.674 369.012C807.674 368.897 807.648 368.794 807.594 368.703C807.543 368.611 807.461 368.539 807.348 368.485C807.238 368.431 807.093 368.405 806.913 368.405C806.769 368.405 806.638 368.426 806.523 368.469C806.41 368.512 806.32 368.574 806.253 368.654C806.186 368.735 806.153 368.831 806.153 368.944H805.178C805.178 368.673 805.255 368.441 805.408 368.248C805.563 368.052 805.77 367.901 806.028 367.797C806.288 367.689 806.577 367.636 806.893 367.636C807.154 367.636 807.391 367.664 807.606 367.72C807.821 367.777 808.006 367.861 808.161 367.974C808.32 368.087 808.441 368.226 808.524 368.393C808.607 368.559 808.649 368.751 808.649 368.968C808.649 369.127 808.612 369.276 808.54 369.415C808.467 369.552 808.36 369.674 808.218 369.781C808.076 369.889 807.902 369.973 807.699 370.035C807.495 370.094 807.264 370.124 807.006 370.124H806.33V369.657ZM806.33 370.345V369.882H807.006C807.299 369.882 807.554 369.909 807.771 369.963C807.988 370.016 808.168 370.094 808.31 370.196C808.453 370.298 808.559 370.424 808.628 370.575C808.698 370.722 808.733 370.89 808.733 371.078C808.733 371.298 808.688 371.494 808.596 371.665C808.505 371.835 808.375 371.978 808.206 372.096C808.039 372.214 807.845 372.304 807.622 372.366C807.399 372.425 807.158 372.455 806.897 372.455C806.672 372.455 806.453 372.428 806.241 372.374C806.032 372.32 805.841 372.237 805.67 372.124C805.5 372.009 805.365 371.864 805.263 371.69C805.164 371.515 805.114 371.307 805.114 371.066H806.088C806.088 371.184 806.123 371.29 806.193 371.384C806.263 371.478 806.361 371.551 806.487 371.605C806.613 371.659 806.762 371.686 806.934 371.686C807.113 371.686 807.265 371.659 807.389 371.605C807.512 371.549 807.605 371.472 807.666 371.376C807.728 371.276 807.759 371.161 807.759 371.029C807.759 370.909 807.737 370.805 807.694 370.719C807.652 370.631 807.59 370.56 807.509 370.506C807.431 370.45 807.335 370.409 807.219 370.385C807.107 370.358 806.979 370.345 806.837 370.345H806.33ZM813.742 369.632V370.458C813.742 370.799 813.699 371.095 813.613 371.347C813.53 371.597 813.41 371.804 813.255 371.967C813.102 372.131 812.917 372.253 812.699 372.334C812.485 372.414 812.246 372.455 811.983 372.455C811.72 372.455 811.479 372.414 811.262 372.334C811.047 372.253 810.862 372.131 810.707 371.967C810.551 371.804 810.43 371.597 810.344 371.347C810.258 371.095 810.215 370.799 810.215 370.458V369.632C810.215 369.292 810.257 368.996 810.34 368.747C810.426 368.497 810.547 368.291 810.702 368.127C810.858 367.96 811.043 367.837 811.258 367.756C811.473 367.676 811.712 367.636 811.975 367.636C812.238 367.636 812.478 367.676 812.695 367.756C812.913 367.837 813.099 367.96 813.255 368.127C813.41 368.291 813.53 368.497 813.613 368.747C813.699 368.996 813.742 369.292 813.742 369.632ZM812.768 370.534V369.548C812.768 369.352 812.75 369.183 812.715 369.041C812.68 368.896 812.629 368.776 812.562 368.682C812.495 368.588 812.412 368.52 812.313 368.477C812.216 368.431 812.103 368.409 811.975 368.409C811.851 368.409 811.74 368.431 811.64 368.477C811.544 368.52 811.462 368.588 811.395 368.682C811.328 368.776 811.277 368.896 811.242 369.041C811.207 369.183 811.19 369.352 811.19 369.548V370.534C811.19 370.733 811.207 370.905 811.242 371.05C811.277 371.194 811.328 371.314 811.395 371.408C811.465 371.502 811.549 371.572 811.649 371.617C811.748 371.663 811.859 371.686 811.983 371.686C812.109 371.686 812.22 371.663 812.317 371.617C812.416 371.572 812.499 371.502 812.566 371.408C812.634 371.314 812.683 371.194 812.715 371.05C812.75 370.905 812.768 370.733 812.768 370.534Z" fill="white"/>
<path d="M771.508 353.147V360.642" stroke="white" stroke-width="0.749529"/>
<path d="M771.345 371.621V372.39H767.766V371.734L769.477 370.132C769.654 369.968 769.794 369.822 769.896 369.693C770.001 369.561 770.076 369.443 770.121 369.339C770.167 369.231 770.19 369.135 770.19 369.049C770.19 368.861 770.128 368.707 770.005 368.586C769.881 368.465 769.704 368.405 769.473 368.405C769.283 368.405 769.124 368.439 768.998 368.509C768.875 368.576 768.783 368.669 768.724 368.787C768.665 368.905 768.636 369.039 768.636 369.19H767.662C767.662 368.905 767.733 368.645 767.875 368.409C768.017 368.172 768.221 367.985 768.487 367.845C768.755 367.705 769.076 367.636 769.449 367.636C769.809 367.636 770.116 367.692 770.371 367.805C770.629 367.917 770.824 368.08 770.959 368.292C771.093 368.501 771.16 368.749 771.16 369.037C771.16 369.195 771.133 369.345 771.079 369.488C771.028 369.63 770.953 369.768 770.854 369.902C770.755 370.036 770.634 370.173 770.492 370.313C770.349 370.452 770.188 370.601 770.009 370.76L769.01 371.621H771.345ZM776.273 371.106C776.273 371.329 776.228 371.525 776.137 371.694C776.048 371.86 775.925 372 775.766 372.112C775.608 372.225 775.421 372.311 775.207 372.37C774.992 372.426 774.758 372.455 774.506 372.455C774.171 372.455 773.869 372.405 773.6 372.306C773.335 372.204 773.124 372.052 772.968 371.851C772.813 371.649 772.735 371.401 772.735 371.106C772.735 370.902 772.778 370.721 772.864 370.562C772.952 370.401 773.076 370.265 773.234 370.152C773.395 370.036 773.582 369.949 773.794 369.89C774.008 369.828 774.243 369.798 774.498 369.798C774.753 369.798 774.988 369.828 775.203 369.89C775.42 369.949 775.608 370.036 775.766 370.152C775.927 370.265 776.052 370.401 776.141 370.562C776.229 370.721 776.273 370.902 776.273 371.106ZM775.299 371.029C775.299 370.893 775.266 370.776 775.199 370.679C775.131 370.583 775.038 370.509 774.917 370.458C774.796 370.404 774.656 370.377 774.498 370.377C774.34 370.377 774.2 370.404 774.079 370.458C773.961 370.509 773.869 370.583 773.802 370.679C773.737 370.776 773.705 370.893 773.705 371.029C773.705 371.166 773.737 371.284 773.802 371.384C773.869 371.48 773.963 371.555 774.083 371.609C774.204 371.66 774.345 371.686 774.506 371.686C774.664 371.686 774.803 371.66 774.921 371.609C775.042 371.555 775.134 371.48 775.199 371.384C775.266 371.284 775.299 371.166 775.299 371.029ZM776.157 368.948C776.157 369.131 776.115 369.297 776.032 369.447C775.951 369.595 775.837 369.724 775.69 369.834C775.542 369.941 775.368 370.024 775.166 370.083C774.968 370.14 774.748 370.168 774.506 370.168C774.265 370.168 774.043 370.14 773.842 370.083C773.641 370.024 773.466 369.941 773.319 369.834C773.171 369.724 773.055 369.595 772.972 369.447C772.892 369.297 772.852 369.131 772.852 368.948C772.852 368.664 772.921 368.425 773.061 368.231C773.203 368.036 773.399 367.888 773.649 367.789C773.898 367.687 774.181 367.636 774.498 367.636C774.82 367.636 775.105 367.687 775.352 367.789C775.601 367.888 775.797 368.036 775.939 368.231C776.084 368.425 776.157 368.664 776.157 368.948ZM775.186 368.996C775.186 368.878 775.158 368.775 775.102 368.686C775.046 368.595 774.966 368.525 774.864 368.477C774.762 368.429 774.64 368.405 774.498 368.405C774.359 368.405 774.238 368.429 774.136 368.477C774.036 368.525 773.959 368.594 773.902 368.682C773.849 368.768 773.822 368.873 773.822 368.996C773.822 369.117 773.849 369.223 773.902 369.314C773.959 369.406 774.038 369.477 774.14 369.528C774.244 369.579 774.367 369.604 774.506 369.604C774.648 369.604 774.769 369.579 774.868 369.528C774.97 369.477 775.048 369.406 775.102 369.314C775.158 369.223 775.186 369.117 775.186 368.996Z" fill="white"/>
<path d="M832.387 348.602L830.769 357.406H828.577L827.239 350.385L825.863 357.406H823.735L822.143 348.602H823.812L824.933 356.068L826.373 348.602H828.157L829.571 356.068L830.794 348.602H832.387ZM839.359 353.877C839.359 353.962 839.346 354.183 839.321 354.539H835.09C835.141 355.193 835.311 355.661 835.6 355.941C835.889 356.221 836.271 356.361 836.747 356.361C837.044 356.361 837.324 356.315 837.588 356.221C837.851 356.119 838.131 355.966 838.429 355.763L839.104 356.693C838.357 357.296 837.524 357.597 836.607 357.597C835.579 357.597 834.785 357.283 834.224 356.654C833.672 356.026 833.396 355.168 833.396 354.081C833.396 353.393 833.515 352.777 833.752 352.233C833.99 351.681 834.334 351.252 834.785 350.946C835.235 350.632 835.77 350.475 836.39 350.475C837.333 350.475 838.063 350.776 838.582 351.379C839.1 351.974 839.359 352.806 839.359 353.877ZM837.741 353.405C837.741 352.225 837.303 351.634 836.428 351.634C836.029 351.634 835.715 351.783 835.485 352.08C835.264 352.369 835.133 352.836 835.09 353.482H837.741V353.405ZM846.734 353.877C846.734 353.962 846.722 354.183 846.696 354.539H842.466C842.517 355.193 842.687 355.661 842.975 355.941C843.264 356.221 843.647 356.361 844.122 356.361C844.42 356.361 844.7 356.315 844.963 356.221C845.227 356.119 845.507 355.966 845.804 355.763L846.48 356.693C845.732 357.296 844.899 357.597 843.982 357.597C842.954 357.597 842.16 357.283 841.599 356.654C841.047 356.026 840.771 355.168 840.771 354.081C840.771 353.393 840.89 352.777 841.128 352.233C841.366 351.681 841.71 351.252 842.16 350.946C842.61 350.632 843.145 350.475 843.765 350.475C844.708 350.475 845.439 350.776 845.957 351.379C846.475 351.974 846.734 352.806 846.734 353.877ZM845.116 353.405C845.116 352.225 844.679 351.634 843.804 351.634C843.404 351.634 843.09 351.783 842.861 352.08C842.64 352.369 842.508 352.836 842.466 353.482H845.116V353.405ZM850.211 347.786V357.406H848.58V347.964L850.211 347.786ZM854.25 350.666L852.007 353.635L854.467 357.406H852.593L850.274 353.724L852.53 350.666H854.25ZM857.834 350.475C858.743 350.475 859.542 350.742 860.23 351.277L859.593 352.233C859.015 351.868 858.45 351.685 857.898 351.685C857.575 351.685 857.325 351.749 857.146 351.876C856.968 351.995 856.879 352.157 856.879 352.36C856.879 352.513 856.917 352.641 856.993 352.743C857.07 352.845 857.206 352.942 857.401 353.036C857.605 353.121 857.902 353.218 858.293 353.329C859.023 353.524 859.563 353.783 859.911 354.106C860.268 354.429 860.446 354.879 860.446 355.457C860.446 356.128 860.174 356.654 859.631 357.037C859.087 357.41 858.412 357.597 857.605 357.597C857.053 357.597 856.547 357.512 856.089 357.343C855.638 357.173 855.248 356.939 854.916 356.642L855.732 355.724C856.318 356.166 856.93 356.387 857.567 356.387C857.932 356.387 858.221 356.315 858.433 356.17C858.654 356.026 858.764 355.826 858.764 355.571C858.764 355.376 858.722 355.223 858.637 355.113C858.561 354.994 858.416 354.892 858.204 354.807C858 354.713 857.677 354.603 857.235 354.476C856.547 354.289 856.042 354.03 855.719 353.698C855.396 353.359 855.235 352.938 855.235 352.437C855.235 352.063 855.341 351.728 855.553 351.43C855.774 351.133 856.08 350.899 856.471 350.729C856.87 350.56 857.325 350.475 857.834 350.475Z" fill="white"/>
<path d="M114.052 352.653L154.526 289.318L193.502 317.051L217.112 321.548L246.344 108.307L276.7 255.589L298.061 262.71L320.172 195.252L333.289 223.359L357.649 296.439L379.76 267.582L402.246 296.439L408.242 302.435L454.338 63.335L470.828 267.582L500.434 255.589L521.046 321.548L548.404 173.891L566.393 311.429L579.884 243.971L604.993 173.891L630.852 296.439L652.589 216.614L676.948 267.582L719.297 145.034L742.907 255.589L767.266 278.45L808.865 195.252" stroke="#54B8BF" stroke-width="3.74765"/>
</svg>
